<svg width="180" height="179" viewBox="0 0 180 179" fill="none" xmlns="http://www.w3.org/2000/svg">
<rect width="180" height="179" fill="#ACACAC"/>
<path d="M89.5 31C57.2446 31 31 57.2446 31 89.5C31 107.68 39.347 123.949 52.3984 134.688C52.81 135.046 53.2053 135.421 53.6289 135.766C56.1083 138.232 59.1317 140.266 62.7227 141.566C63.8352 142.115 64.9623 142.627 66.1211 143.09C73.2896 146.23 81.1865 148 89.5 148C121.755 148 148 121.755 148 89.5C148 57.2446 121.755 31 89.5 31ZM89.5 40C116.891 40 139 62.1086 139 89.5C139 103.585 133.134 116.25 123.73 125.254C128.878 117.608 131.887 108.409 131.887 98.5234C131.887 72.0571 110.33 50.5 83.8633 50.5C66.0841 50.5 50.5599 60.2547 42.2617 74.6641C48.5471 54.5486 67.2799 40 89.5 40ZM83.8633 59.5C105.466 59.5 122.887 76.9211 122.887 98.5234C122.887 110.147 117.81 120.519 109.785 127.656C113.544 121.817 115.762 114.9 115.762 107.465C115.762 86.8174 98.9209 69.9883 78.2734 69.9883C64.7537 69.9883 52.9093 77.2334 46.3164 88.0117C50.8919 71.5477 65.9109 59.5 83.8633 59.5ZM78.2734 78.9883C94.0569 78.9883 106.762 91.6814 106.762 107.465C106.762 116.25 102.743 123.986 96.5313 129.203C98.5432 125.207 99.6133 120.801 99.6133 116.383C99.6133 109.78 97.4347 103.114 92.875 97.9844C88.3153 92.8547 81.302 89.4648 72.707 89.4648C64.112 89.4648 57.0988 92.8547 52.5391 97.9844C51.8607 98.7476 51.3432 99.6077 50.7695 100.434C53.8971 88.0975 64.9339 78.9883 78.2734 78.9883ZM72.707 98.4648C79.052 98.4648 83.2382 100.687 86.1484 103.961C89.0587 107.235 90.6133 111.78 90.6133 116.383C90.6133 120.985 89.0587 125.519 86.1484 128.793C83.2382 132.067 79.052 134.289 72.707 134.289C70.286 134.289 68.2673 133.875 66.4258 133.293C66.2808 133.217 66.1246 133.16 65.9805 133.082C65.922 133.051 65.863 133.02 65.8047 132.988C63.9525 131.979 62.1946 130.819 60.4961 129.59C59.9542 129.154 59.3987 128.739 58.8906 128.266C56.2506 125.037 54.8008 120.759 54.8008 116.383C54.8008 111.78 56.3554 107.235 59.2656 103.961C62.1759 100.687 66.362 98.4648 72.707 98.4648Z" fill="#E2E2E2"/>
</svg>
