<svg width="68" height="24" viewBox="0 0 68 24" fill="none" xmlns="http://www.w3.org/2000/svg">
<path d="M36.1136 8.27273V17H34.1364L30.983 12.4148H30.9318V17H28.5625V8.27273H30.5739L33.6761 12.8409H33.7443V8.27273H36.1136ZM40.4048 17.1193C39.706 17.1193 39.1037 16.9858 38.598 16.7188C38.0952 16.4489 37.7074 16.0625 37.4347 15.5597C37.1648 15.054 37.0298 14.4489 37.0298 13.7443C37.0298 13.0682 37.1662 12.4773 37.4389 11.9716C37.7116 11.4659 38.0966 11.0724 38.5938 10.7912C39.0909 10.5099 39.6776 10.3693 40.3537 10.3693C40.848 10.3693 41.2955 10.446 41.696 10.5994C42.0966 10.7528 42.4389 10.9759 42.723 11.2685C43.0071 11.5582 43.2259 11.9105 43.3793 12.3253C43.5327 12.7401 43.6094 13.2074 43.6094 13.7273V14.2727H37.7628V12.9773H41.4446C41.4418 12.7898 41.3935 12.625 41.2997 12.483C41.2088 12.3381 41.0852 12.2259 40.929 12.1463C40.7756 12.0639 40.6009 12.0227 40.4048 12.0227C40.2145 12.0227 40.0398 12.0639 39.8807 12.1463C39.7216 12.2259 39.5938 12.3366 39.4972 12.4787C39.4034 12.6207 39.3537 12.7869 39.348 12.9773V14.375C39.348 14.5852 39.392 14.7727 39.4801 14.9375C39.5682 15.1023 39.6946 15.2315 39.8594 15.3253C40.0241 15.419 40.223 15.4659 40.456 15.4659C40.6179 15.4659 40.7656 15.4432 40.8991 15.3977C41.0355 15.3523 41.152 15.2869 41.2486 15.2017C41.3452 15.1136 41.4162 15.0085 41.4616 14.8864H43.6094C43.5355 15.3409 43.3608 15.7358 43.0852 16.071C42.8097 16.4034 42.4446 16.6619 41.9901 16.8466C41.5384 17.0284 41.0099 17.1193 40.4048 17.1193ZM44.5692 17V10.4545H46.8533V11.6989H46.9215C47.0408 11.2386 47.2298 10.902 47.4883 10.6889C47.7496 10.4759 48.055 10.3693 48.4045 10.3693C48.5067 10.3693 48.6076 10.3778 48.707 10.3949C48.8093 10.4091 48.9073 10.4304 49.0011 10.4588V12.4659C48.8846 12.4261 48.7411 12.3963 48.5707 12.3764C48.4002 12.3565 48.2539 12.3466 48.1317 12.3466C47.9016 12.3466 47.6942 12.3991 47.5096 12.5043C47.3278 12.6065 47.1843 12.7514 47.0792 12.9389C46.9741 13.1236 46.9215 13.3409 46.9215 13.5909V17H44.5692ZM51.7667 17.0852C51.3008 17.0852 50.8718 16.9631 50.4798 16.7188C50.0906 16.4744 49.7781 16.1037 49.5423 15.6065C49.3093 15.1094 49.1928 14.483 49.1928 13.7273C49.1928 12.9375 49.315 12.2955 49.5593 11.8011C49.8065 11.3068 50.1246 10.9446 50.5138 10.7145C50.9059 10.4844 51.3178 10.3693 51.7496 10.3693C52.0735 10.3693 52.3576 10.4261 52.6019 10.5398C52.8462 10.6506 53.0508 10.7997 53.2156 10.9872C53.3803 11.1719 53.5053 11.375 53.5906 11.5966H53.6246V8.27273H55.9769V17H53.6417V15.9261H53.5906C53.4996 16.1477 53.369 16.3466 53.1985 16.5227C53.0309 16.696 52.8263 16.8338 52.5849 16.9361C52.3462 17.0355 52.0735 17.0852 51.7667 17.0852ZM52.636 15.2784C52.8519 15.2784 53.0366 15.2159 53.19 15.0909C53.3462 14.9631 53.4656 14.7841 53.5479 14.554C53.6332 14.321 53.6758 14.0455 53.6758 13.7273C53.6758 13.4034 53.6332 13.1264 53.5479 12.8963C53.4656 12.6634 53.3462 12.4858 53.19 12.3636C53.0366 12.2386 52.8519 12.1761 52.636 12.1761C52.4201 12.1761 52.2354 12.2386 52.082 12.3636C51.9315 12.4858 51.815 12.6634 51.7326 12.8963C51.6531 13.1264 51.6133 13.4034 51.6133 13.7273C51.6133 14.0511 51.6531 14.3295 51.7326 14.5625C51.815 14.7926 51.9315 14.9702 52.082 15.0952C52.2354 15.2173 52.4201 15.2784 52.636 15.2784ZM59.484 8.27273V17H57.1317V8.27273H59.484ZM62.1143 19.4545C61.8445 19.4545 61.5874 19.4332 61.343 19.3906C61.0987 19.3509 60.8842 19.2955 60.6996 19.2244L61.2109 17.554C61.4041 17.6222 61.5803 17.6662 61.7393 17.6861C61.9013 17.706 62.0391 17.6946 62.1527 17.652C62.2692 17.6094 62.353 17.5284 62.4041 17.4091L62.4553 17.2898L60.1541 10.4545H62.6087L63.6655 14.9886H63.7337L64.8075 10.4545H67.2791L64.8928 17.5455C64.7734 17.9062 64.6001 18.2301 64.3729 18.517C64.1484 18.8068 63.853 19.0355 63.4865 19.2031C63.12 19.3707 62.6626 19.4545 62.1143 19.4545Z" fill="#282828"/>
<path d="M12 0C5.38351 0 0 5.38352 0 12C0 15.7292 1.71221 19.0665 4.38942 21.2692C4.47384 21.3428 4.55493 21.4197 4.64183 21.4904C5.15042 21.9962 5.77061 22.4136 6.50721 22.6803C6.73542 22.7929 6.96663 22.8978 7.20433 22.9928C8.67479 23.637 10.2947 24 12 24C18.6165 24 24 18.6165 24 12C24 5.38352 18.6165 0 12 0ZM12 1.84615C17.6188 1.84615 22.1538 6.38125 22.1538 12C22.1538 14.8892 20.9506 17.4873 19.0216 19.3341C20.0775 17.7657 20.6947 15.8787 20.6947 13.851C20.6947 8.42198 16.2727 4 10.8438 4C7.19674 4 4.01229 6.00096 2.3101 8.95673C3.59941 4.83048 7.44203 1.84615 12 1.84615ZM10.8438 5.84615C15.275 5.84615 18.8486 9.41971 18.8486 13.851C18.8486 16.2352 17.8071 18.363 16.1611 19.8269C16.9321 18.6291 17.387 17.2102 17.387 15.6851C17.387 11.4497 13.9325 7.9976 9.69712 7.9976C6.92383 7.9976 4.49421 9.48377 3.14183 11.6947C4.08038 8.31747 7.16121 5.84615 10.8438 5.84615ZM9.69712 9.84375C12.9348 9.84375 15.5409 12.4475 15.5409 15.6851C15.5409 17.4871 14.7166 19.0739 13.4423 20.1442C13.855 19.3246 14.0745 18.4208 14.0745 17.5144C14.0745 16.1601 13.6276 14.7926 12.6923 13.7404C11.757 12.6881 10.3184 11.9928 8.55529 11.9928C6.79221 11.9928 5.3536 12.6881 4.41827 13.7404C4.27911 13.8969 4.17296 14.0734 4.05529 14.2428C4.69685 11.7123 6.9608 9.84375 9.69712 9.84375ZM8.55529 13.8389C9.85683 13.8389 10.7155 14.2947 11.3125 14.9663C11.9095 15.6379 12.2284 16.5703 12.2284 17.5144C12.2284 18.4585 11.9095 19.3885 11.3125 20.0601C10.7155 20.7317 9.85683 21.1875 8.55529 21.1875C8.05866 21.1875 7.64457 21.1026 7.26683 20.9832C7.23708 20.9675 7.20505 20.9559 7.17548 20.9399C7.1635 20.9334 7.15138 20.9272 7.13942 20.9207C6.75949 20.7137 6.3989 20.4758 6.05048 20.2236C5.93932 20.1342 5.82537 20.0491 5.72115 19.9519C5.1796 19.2897 4.88221 18.4121 4.88221 17.5144C4.88221 16.5703 5.2011 15.6379 5.79808 14.9663C6.39506 14.2947 7.25375 13.8389 8.55529 13.8389Z" fill="black"/>
</svg>
