<svg width="180" height="179" viewBox="0 0 180 179" fill="none" xmlns="http://www.w3.org/2000/svg">
<rect width="180" height="179" fill="#0067E1"/>
<path d="M89.5 49C67.1694 49 49 67.1694 49 89.5C49 102.086 54.7787 113.35 63.8143 120.784C64.0992 121.032 64.3729 121.291 64.6662 121.53C66.3827 123.237 68.4758 124.646 70.9618 125.546C71.7321 125.926 72.5124 126.28 73.3146 126.601C78.2774 128.775 83.7445 130 89.5 130C111.831 130 130 111.831 130 89.5C130 67.1694 111.831 49 89.5 49ZM89.5 55.2308C108.463 55.2308 123.769 70.5367 123.769 89.5C123.769 99.251 119.708 108.019 113.198 114.253C116.762 108.959 118.845 102.591 118.845 95.747C118.845 77.4242 103.92 62.5 85.5977 62.5C73.289 62.5 62.5415 69.2532 56.7966 79.229C61.148 65.3029 74.1169 55.2308 89.5 55.2308ZM85.5977 68.7308C100.553 68.7308 112.614 80.7915 112.614 95.747C112.614 103.794 109.099 110.975 103.544 115.916C106.146 111.873 107.681 107.084 107.681 101.937C107.681 87.6428 96.0222 75.9919 81.7278 75.9919C72.3679 75.9919 64.1679 81.0077 59.6037 88.4697C62.7713 77.0715 73.1691 68.7308 85.5977 68.7308ZM81.7278 82.2227C92.6548 82.2227 101.45 91.0102 101.45 101.937C101.45 108.019 98.6684 113.375 94.3678 116.987C95.7607 114.22 96.5015 111.17 96.5015 108.111C96.5015 103.54 94.9933 98.9251 91.8365 95.3738C88.6798 91.8225 83.8245 89.4757 77.8741 89.4757C71.9237 89.4757 67.0684 91.8225 63.9117 95.3738C63.442 95.9022 63.0837 96.4976 62.6866 97.0694C64.8519 88.529 72.4927 82.2227 81.7278 82.2227ZM77.8741 95.7064C82.2668 95.7064 85.1649 97.2448 87.1797 99.5114C89.1945 101.778 90.2707 104.925 90.2707 108.111C90.2707 111.298 89.1945 114.436 87.1797 116.703C85.1649 118.969 82.2668 120.508 77.8741 120.508C76.198 120.508 74.8004 120.221 73.5255 119.818C73.4251 119.765 73.3171 119.726 73.2172 119.672C73.1768 119.65 73.1359 119.629 73.0956 119.607C71.8133 118.909 70.5963 118.106 69.4204 117.255C69.0452 116.953 68.6606 116.666 68.3089 116.338C66.4812 114.103 65.4775 111.141 65.4775 108.111C65.4775 104.925 66.5537 101.778 68.5685 99.5114C70.5833 97.2448 73.4814 95.7064 77.8741 95.7064Z" fill="#E2E2E2"/>
</svg>
